<svg version="1.1" xmlns="http://www.w3.org/2000/svg" xmlns:xlink="http://www.w3.org/1999/xlink" width="1013" height="786"><defs/><g><g/><g/><g/><g/><g/><g/><g/><g/><g/><g/><g/><g/><g/><g/><g/><g/><g/><g/><g/><g/><g/><g/><g/><g/><g/><g/><g/><g/><g/><g/><g><rect fill="white" stroke="none" x="0" y="0" width="1013" height="786"/></g><g><text fill="black" stroke="none" font-family="sans-serif" font-size="13.5pt" font-style="normal" font-weight="normal" text-decoration="normal" x="448.9616795833333" y="18.8483115" text-anchor="start" dominant-baseline="alphabetic" xml:space="preserve">High level flow</text></g><g/><g><path fill="none" stroke="black" paint-order="fill stroke markers" d=" M 46.2876533125 99.77039554 L 46.2876533125 786.96879634" stroke-miterlimit="10" stroke-width="1.0471284166666666" stroke-dasharray="9.665800769230769,4.188513666666666"/><path fill="none" stroke="black" paint-order="fill stroke markers" d=" M 165.10616110416666 99.77039554 L 165.10616110416666 786.96879634" stroke-miterlimit="10" stroke-width="1.0471284166666666" stroke-dasharray="9.665800769230769,4.188513666666666"/><path fill="none" stroke="black" paint-order="fill stroke markers" d=" M 283.9246688958333 99.77039554 L 283.9246688958333 786.96879634" stroke-miterlimit="10" stroke-width="1.0471284166666666" stroke-dasharray="9.665800769230769,4.188513666666666"/><path fill="none" stroke="black" paint-order="fill stroke markers" d=" M 466.8527001041666 99.77039554 L 466.8527001041666 786.96879634" stroke-miterlimit="10" stroke-width="1.0471284166666666" stroke-dasharray="9.665800769230769,4.188513666666666"/><path fill="none" stroke="black" paint-order="fill stroke markers" d=" M 717.4082283749999 354.15425484 L 717.4082283749999 585.92014034" stroke-miterlimit="10" stroke-width="1.0471284166666666" stroke-dasharray="9.665800769230769,4.188513666666666"/><path fill="none" stroke="black" paint-order="fill stroke markers" d=" M 891.9416541249999 426.33776964000003 L 891.9416541249999 621.10365514" stroke-miterlimit="10" stroke-width="1.0471284166666666" stroke-dasharray="9.665800769230769,4.188513666666666"/></g><g><g><path fill="white" stroke="black" paint-order="fill stroke markers" d=" M 53.4500116825 46.61815710999999 A 7.162358369999999 7.162358369999999 0 1 1 53.45000810132111 46.610994752823714 M 46.2876533125 53.78051547999999 L 46.2876533125 69.11047549999999 M 37.240463792499995 59.30935351999999 L 55.3348428325 59.30935351999999 M 46.2876533125 69.11047549999999 L 37.240463792499995 83.43519223999999 M 46.2876533125 69.11047549999999 L 55.3348428325 83.43519223999999" stroke-miterlimit="10" stroke-width="2.13614197" stroke-dasharray=""/></g><g><text fill="black" stroke="none" font-family="sans-serif" font-size="9pt" font-style="normal" font-weight="normal" text-decoration="normal" x="6.282770499999998" y="96.00073323999999" text-anchor="start" dominant-baseline="alphabetic" xml:space="preserve">Client (</text><text fill="black" stroke="none" font-family="sans-serif" font-size="9pt" font-style="normal" font-weight="bold" text-decoration="normal" x="44.292536125" y="96.00073323999999" text-anchor="start" dominant-baseline="alphabetic" xml:space="preserve">runner</text><text fill="black" stroke="none" font-family="sans-serif" font-size="9pt" font-style="normal" font-weight="normal" text-decoration="normal" x="82.296442375" y="96.00073323999999" text-anchor="start" dominant-baseline="alphabetic" xml:space="preserve">)</text></g><g><path fill="#1da1f2" stroke="black" paint-order="fill stroke markers" d=" M 146.76047124416667 75.14193517999999 L 146.76047124416667 48.754299079999996 L 183.45185096416665 48.754299079999996 L 183.45185096416665 75.14193517999999" stroke-miterlimit="10" stroke-width="2.13614197" stroke-dasharray=""/><path fill="#1da1f2" stroke="black" paint-order="fill stroke markers" d=" M 183.45185096416665 47.837014587 L 183.45093368731767 47.9199457753974 L 183.44818194849762 48.00286867074507 L 183.44359602287813 48.08577498082258 L 183.43717636904788 48.168656415068 L 183.42892362896694 48.251504685406985 L 183.41883862790246 48.33431150708154 L 183.4069223743461 48.4170685994785 L 183.39317605991332 48.49976768695758 L 183.3776010592241 48.58240049967896 L 183.3601989297655 48.664958774430225 L 183.340971411736 48.7474342554527 L 183.31992042787135 48.829818695267015 L 183.29704808325243 48.91210385549783 L 183.27235666509463 48.9942815076977 L 183.24584864251918 49.07634343416989 L 183.21752666630624 49.15828142879013 L 183.18739356862986 49.240087297827245 L 183.15545236277467 49.3217528607625 L 183.12170624283462 49.40326995110766 L 183.08615858339363 49.48463041722162 L 183.048812939188 49.56582612312556 L 183.00967304475103 49.646848949316556 L 182.96874281403953 49.72769079357952 L 182.92602634004248 49.80834357179737 L 182.8815278943717 49.88879921875952 L 182.83525192683462 49.96904968896831 L 182.78720306498948 50.04908695744359 L 182.73738611368242 50.128903020525215 L 182.68580605456705 50.208489896673385 L 182.6324680456063 50.28783962726681 L 182.5773774205566 50.36694427739856 L 182.52053968843455 50.44579593666953 L 182.46196053296603 50.524386719979525 L 182.40164581201773 50.60270876831568 L 182.33960155701152 50.680754249538445 L 182.27583397232115 50.758515359164726 L 182.210349434652 50.83598432114837 L 182.14315449240323 50.91315338865773 L 182.0742558650131 50.99001484485037 L 182.0036604422869 51.066561003644715 L 181.93137528370812 51.14278421048867 L 181.85740761773232 51.21867684312508 L 181.7817648410645 51.294231312353915 L 181.7044545179193 51.36944006279123 L 181.62548437926455 51.44429557362463 L 181.54486232204837 51.51879035936543 L 181.46259640840927 51.59291697059713 L 181.37869486487006 51.666667994720385 L 181.29316608151518 51.74003605669423 L 181.2060186111517 51.81301381977361 L 181.117261168454 51.88559398624304 L 181.02690262909243 51.957769298146346 L 180.9349520288456 52.02953253801249 L 180.84141856269693 52.100876529577285 L 180.7463115839151 52.17179413850103 L 180.64964060311866 52.24227827308192 L 180.5514152873252 52.31232188496526 L 180.45164545898444 52.3819179698482 L 180.35034109499605 52.45105956818027 L 180.247512325712 52.51973976585924 L 180.14316943392356 52.58795169492259 L 180.03732285383296 52.65568853423424 L 179.92998317000996 52.722943510166715 L 179.82116111633354 52.78970989727848 L 179.71086757491835 52.855981018986434 L 179.59911357502665 52.92175024823366 L 179.48591029196527 52.98701100815202 L 179.37126904596818 53.05175677271991 L 179.2552013010645 53.11598106741484 L 179.1377186639319 53.179677469860856 L 179.0188328827363 53.24283961047078 L 178.89855584595668 53.3054611730832 L 178.77689958119652 53.367535895594045 L 178.65387625398085 53.42905757058277 L 178.52949816653998 53.490020045933164 L 178.40377775657893 53.550417225448484 L 178.27672759603394 53.61024306946111 L 178.14836038981522 53.669491595436504 L 178.0186889745364 53.72815687857143 L 177.88772631723091 53.78623305238647 L 177.7554855140554 53.84371430931264 L 177.62197978897998 53.900594901272136 L 177.4872224924659 53.95686914025318 L 177.35122710013047 54.01253139887876 L 177.21400721139966 54.0675761109694 L 177.07557654814798 54.12199777209975 L 176.93594895332635 54.17579094014907 L 176.79513838957794 54.22895023584536 L 176.65315893784177 54.28147034330337 L 176.5100247959447 54.33334601055611 L 176.36575027718163 54.38457205008009 L 176.22034980888424 54.43514333931403 L 176.07383793097816 54.48505482117117 L 175.9262292945291 54.534301504544906 L 175.77753866027768 54.58287846480794 L 175.62778089716346 54.63078084430473 L 175.4769709808379 54.678003852837236 L 175.32512399216702 54.72454276814397 L 175.1722551157231 54.770392936372176 L 175.0183796382664 54.81554977254324 L 174.86351294721644 54.86000876101118 L 174.7076705291133 54.90376545591419 L 174.55086796806887 54.946815481619254 L 174.39312094420862 54.98915453315966 L 174.23444523210347 55.03077837666555 L 174.07485669919242 55.071682849787265 L 173.91437130419575 55.11186386211156 L 173.75300509551923 55.15131739557071 L 173.59077420964923 55.19003950484423 L 173.42769486953918 55.22802631775346 L 173.26378338298719 55.26527403564878 L 173.09905614100532 55.30177893378942 L 172.9335296161805 55.33753736171601 L 172.76722036102723 55.37254574361553 L 172.60014500633247 55.40680057867898 L 172.43232025949249 55.440298441451404 L 172.26376290284207 55.47303598217443 L 172.09448979197643 55.505009927121264 L 171.9245178540656 55.53621707892406 L 171.7538640861617 55.56665431689365 L 171.5825455534994 55.59631859733159 L 171.41057938778908 55.625206953834564 L 171.23798278550407 55.65331649759099 L 171.06477300616078 55.680644417669924 L 170.89096737059276 55.70718798130213 L 170.71658325921877 55.73294453415336 L 170.5416381103046 55.75791150058979 L 170.36614941821938 55.78208638393559 L 170.19013473168607 55.80546676672257 L 170.0136116520266 55.82805031093193 L 169.83659783140192 55.84983475822807 L 169.6591109710465 55.87081793018441 L 169.48116881949852 55.890997728501254 L 169.30278917082484 55.910372135215574 L 169.12398986284165 55.92893921290285 L 168.94478877533078 55.94669710487078 L 168.76520382825166 55.96364403534497 L 168.5852529799493 55.9797783096465 L 168.4049542253586 55.99509831436137 L 168.22432559420477 56.00960251750189 L 168.0433851492004 56.023289468659826 L 167.86215098423918 56.03615779915147 L 167.68064122258664 56.0482062221545 L 167.49887401506763 56.05943353283664 L 167.31686753825144 56.069838608476196 L 167.13463999263413 56.079420408574265 L 166.95220960081835 56.08817797495883 L 166.76959460569125 56.09611043188055 L 166.5868132686002 56.10321698610033 L 166.4038838675266 56.10949692696868 L 166.22082469525807 56.114949626496745 L 166.03765405755934 56.11957453941912 L 165.8543902713415 56.12337120324836 L 165.67105166283045 56.12633923832125 L 165.48765656573428 56.12847834783676 L 165.30422331940986 56.12978831788571 L 165.12077026702897 56.1302690174722 L 164.937315753744 56.12992039852666 L 164.75387812485334 56.1287424959107 L 164.57047572396704 56.1267354274136 L 164.38712689117236 56.12389939374054 L 164.2038499611998 56.12023467849251 L 164.0206632615896 56.115741648138 L 163.83758511085907 56.110420751976285 L 163.65463381667075 56.10427252209256 L 163.47182767400156 56.09729757330469 L 163.28918496331346 56.08949660310172 L 163.1067239487253 56.0808703915742 L 162.92446287618648 56.07141980133608 L 162.7424199716524 56.0611457774385 L 162.5606134392618 56.05004934727529 L 162.37906145951638 56.038131620480236 L 162.19778218746285 56.025393788816075 L 162.01679375087738 56.011837126055354 L 161.83611424845276 55.997462987853055 L 161.65576174798866 55.98227281161103 L 161.4757542845849 55.966268116334234 L 161.29610985883772 55.949450502478854 L 161.11684643504006 55.931821651792276 L 160.9379819393849 55.913383327144864 L 160.75953425817275 55.89413737235372 L 160.581521236023 55.87408571199829 L 160.40396067408957 55.85323035122789 L 160.22687032828065 55.83157337556124 L 160.05026790748326 55.80911695067783 L 159.87417107179232 55.78586332220146 L 159.69859743074463 55.76181481547558 L 159.523564541558 55.736973835330836 L 159.34908990737546 55.711342865844536 L 159.17519097551508 55.68492447009226 L 159.00188513572508 55.65772128989159 L 158.82918971844506 55.62973604553786 L 158.65712199307282 55.60097153553219 L 158.4856991662375 55.571430636301606 L 158.31493838007896 55.54111630191142 L 158.14485671053347 55.51003156376981 L 157.9754711656263 55.478179530324674 L 157.80679868377075 55.44556338675283 L 157.63885613207447 55.41218639464144 L 157.47166030465266 55.37805189166191 L 157.30522792094874 55.343163291236095 L 157.13957562406236 55.30752408219496 L 156.97471997908522 55.2711378284297 L 156.81067747144442 55.23400816853539 L 156.647464505254 55.19613881544706 L 156.48509740167455 55.15753355606847 L 156.3235923972812 55.11819625089339 L 156.16296564243973 55.07813083361955 L 156.0032331996918 55.03734131075529 L 155.84441104214858 54.9958317612189 L 155.68651505189345 54.95360633593076 L 155.52956101839385 54.9106692573982 L 155.3735646369224 54.867024819293285 L 155.21854150698715 54.822677386023464 L 155.064507130772 54.77763139229511 L 154.91147691158616 54.73189134267005 L 154.75946615232405 54.68546181111515 L 154.6084900539349 54.63834744054484 L 154.45856371390275 54.59055294235694 L 154.30970212473665 54.54208309596144 L 154.16192017247147 54.49294274830258 L 154.01523263517927 54.443136813374174 L 153.8696541814916 54.39267027172822 L 153.72519936913244 54.34154816997682 L 153.5818826434627 54.28977562028754 L 153.4397183360355 54.23735779987222 L 153.2987206631631 54.18429995046922 L 153.15890372449527 54.13060737781925 L 153.02028150160945 54.07628545113485 L 152.8828678566123 54.02133960256341 L 152.7466765307539 53.965775326644 L 152.6117211430533 53.90959817975791 L 152.4780151889368 53.85281377957301 L 152.3455720388884 53.795427804482 L 152.21440493711276 53.73744599303458 L 152.0845270002107 53.67887414336356 L 151.95595121586774 53.6197181126051 L 151.82869044155512 53.559983816312986 L 151.70275740324425 53.49967722786707 L 151.578164694134 53.43880437787593 L 151.45492477339147 53.37737135357385 L 151.333049964906 53.31538429821206 L 151.21255245605693 53.25284941044444 L 151.09344429649468 53.18977294370766 L 150.97573739693598 53.12616120559582 L 150.8594435279727 53.06202055722974 L 150.7445743188948 52.99735741262078 L 150.63114125652748 52.932178238029536 L 150.51915568408245 52.86648955131914 L 150.40862880002365 52.80029792130354 L 150.29957165694734 52.73360996709055 L 150.19199516047698 52.66643235742004 L 150.08591006817255 52.59877180999699 L 149.98132698845487 52.53063509081976 L 149.8782563795448 52.46202901350348 L 149.7767085484173 52.39296043859872 L 149.67669364977087 52.32343627290541 L 149.57822168501204 52.25346346878218 L 149.48130250125524 52.18304902345113 L 149.38594579033804 52.11219997829812 L 149.29216108785207 52.04092341816863 L 149.19995777218946 51.96922647065926 L 149.10934506360493 51.89711630540503 L 149.0203320232938 51.82460013336236 L 148.93292755248598 51.751685206088034 L 148.84714039155563 51.67837881501401 L 148.76297911914745 51.604688290718315 L 148.68045215131846 51.530621002191964 L 148.59956774069673 51.456184356102085 L 148.5203339756559 51.38138579605126 L 148.44275877950642 51.306232801833175 L 148.36684990970332 51.2307328886846 L 148.29261495707024 51.15489360653395 L 148.22006134504068 51.078722539246236 L 148.1491963289153 51.002227303864714 L 148.08002699513668 50.92541554984917 L 148.01256026058059 50.84829495831101 L 147.94680287186424 50.7708732412451 L 147.88276140467167 50.69315814075864 L 147.82044226309628 50.61515742829692 L 147.7598516790003 50.53687890386618 L 147.7009957113916 50.45833039525363 L 147.64388024581794 50.37951975724469 L 147.58851099377824 50.300454870837456 L 147.5348934921516 50.221143642454706 L 147.4830331026435 50.14159400315318 L 147.43293501124964 50.06181390783051 L 147.38460422773744 49.98181133442975 L 147.33804558514498 49.90159428314158 L 147.29326373929769 49.821170775604266 L 147.25026316834285 49.740548854101554 L 147.20904817230175 49.6597365807584 L 147.16962287263962 49.5787420367348 L 147.13199121185357 49.49757332141767 L 147.09615695307832 49.41623855161088 L 147.0621236797099 49.33474586072365 L 147.02989479504728 49.253103397957155 L 146.99947352195207 49.171319327489634 L 146.97086290252622 49.089401827659984 L 146.94406579780784 49.00735909014991 L 146.91908488748504 48.92519931916482 L 146.8959226696281 48.84293073061332 L 146.87458146043946 48.76056155128572 L 146.85506339402224 48.678100018031316 L 146.83737042216686 48.59555437693471 L 146.82150431415573 48.51293288249122 L 146.80746665658643 48.43024379678145 L 146.79525885321303 48.34749538864505 L 146.78488212480568 48.26469593285389 L 146.7763375090286 48.181853709284546 L 146.76962586033622 48.098977002090336 L 146.76474784988784 48.01607409887292 L 146.76170396548042 47.933153289853536 L 146.76049451149987 47.850222867043975 L 146.7611196088906 47.767291123417415 L 146.76357919514336 47.68436635207912 L 146.7678730243016 47.601456845437106 L 146.77400066698596 47.51857089437295 L 146.78196151043727 47.43571678741269 L 146.79175475857787 47.35290280989797 L 146.80337943209105 47.270137243157535 L 146.81683436851918 47.187428363679096 L 146.83211822237982 47.10478444228166 L 146.8492294653003 47.02221374328851 L 146.86816638617066 46.93972452370074 L 146.88892709131449 46.85732503237155 L 146.91150950467866 46.77502350918142 L 146.9359113680406 46.692828184214086 L 146.96213024123432 46.610747276933544 L 146.99016350239438 46.52878899536212 L 147.020008348218 46.446961535259675 L 147.05166179424546 46.36527307930403 L 147.08512067515855 46.28373179627271 L 147.12038164509707 46.202345840226066 L 147.15744117799338 46.12112334969188 L 147.19629556792512 46.04007244685152 L 147.2369409294856 45.95920123672772 L 147.2793731981726 45.87851780637412 L 147.3235881307946 45.7980302240665 L 147.36958130589517 45.71774653849603 L 147.41734812419514 45.63767477796436 L 147.4668838090525 45.55782294958081 L 147.51818340693998 45.47819903846168 L 147.5712417879406 45.39881100693174 L 147.62605364626046 45.319666793727976 L 147.6826135007594 45.24077431320575 L 147.7409156954991 45.16214145454738 L 147.80095440030868 45.0837760809732 L 147.8627236113677 45.00568602895527 L 147.9262171518065 44.92787910743371 L 147.991428672324 44.85036309703583 L 148.05835165182242 44.77314574929809 L 148.1269793980596 44.696234785890894 L 148.19730504831816 44.6196378978465 L 148.26932157009162 44.54336274478989 L 148.34302176178784 44.4674169541728 L 148.41839825344903 44.391808120511 L 148.49544350748891 44.31654380462486 L 148.57414981944623 44.24163153288323 L 148.65450931875537 44.16707879645088 L 148.7365139695334 44.09289305053931 L 148.82015557138357 44.01908171366129 L 148.9054257602154 43.94565216688901 L 148.99231600908104 43.872611753115955 L 149.08081762902805 43.799967776322625 L 149.17092176996815 43.72772750084617 L 149.26261942156233 43.65589815065393 L 149.3559014141219 43.58448690862108 L 149.45075841952527 43.5135009158123 L 149.547180952151 43.442947270767725 L 149.64515936982616 43.37283302879307 L 149.7446838747906 43.30316520125409 L 149.84574451467682 43.23395075487549 L 149.94833118350502 43.16519661104422 L 150.0524336226938 43.09690964511739 L 150.15804142208597 43.02909668573467 L 150.26514402098965 42.96176451413549 L 150.37373070923417 42.8949198634809 L 150.4837906282412 42.828569418180265 L 150.59531277211053 42.76271981322283 L 150.70828598872075 42.69737763351419 L 150.82269898084434 42.6325494132179 L 150.93854030727738 42.56824163510194 L 151.0557983839838 42.50446072989054 L 151.1744614852537 42.44121307562107 L 151.29451774487572 42.37850499700625 L 151.41595515732402 42.316342764801696 L 151.53876157895854 42.25473259517881 L 151.66292472923948 42.19368064910322 L 151.78843219195522 42.13319303171866 L 151.91527141646412 42.07327579173646 L 152.04342971894943 42.01393492083068 L 152.17289428368767 41.95517635303897 L 152.30365216433026 41.89700596416914 L 152.43569028519815 41.83942957121161 L 152.56899544258923 41.78245293175768 L 152.70355430609885 41.726081743423826 L 152.8393534199528 41.6703216432819 L 152.9763792043529 41.61517820729545 L 153.11461795683485 41.560656949762134 L 153.2540558536386 41.50676332276225 L 153.3946789510907 41.4535027156136 L 153.53647318699856 41.400880454332516 L 153.67942438205677 41.34890180110127 L 153.82351824126494 41.29757195374187 L 153.9687403553572 41.24689604519629 L 154.11507620224322 41.19687914301313 L 154.26251114846022 41.14752624884095 L 154.41103045063645 41.098842297928016 L 154.56061925696545 41.05083215862888 L 154.71126260869124 41.00350063191744 L 154.86294544160418 40.956852450906936 L 155.0156525875474 40.910892280376586 L 155.16936877593358 40.865624716305156 L 155.32407863527195 40.82105428541132 L 155.47976669470546 40.777185444701026 L 155.636417385558 40.7340225810218 L 155.79401504289092 40.69157001062402 L 155.9525439070699 40.64983197872937 L 156.1119881253406 40.60881265910624 L 156.27233175341405 40.56851615365242 L 156.4335587570611 40.528946491984875 L 156.5956530137157 40.49010763103679 L 156.75859831408727 40.452003454661906 L 156.92237836378158 40.4146377732461 L 157.08697678493013 40.378014323326376 L 157.25237711782796 40.3421367672172 L 157.41856282257964 40.307008692644295 L 157.58551728075318 40.272633612385846 L 157.75322379704187 40.23901496392122 L 157.92166560093384 40.20615610908727 L 158.09082584838907 40.17406033374207 L 158.26068762352378 40.142730847436425 L 158.43123394030204 40.112170783092864 L 158.60244774423424 40.082383196692334 L 158.7743119140827 40.053371066968666 L 158.94680926357364 40.02513729511065 L 159.11992254311588 39.99768470447196 L 159.29363444152568 39.97101604028876 L 159.467927587758 39.945133969405255 L 159.64278455264346 39.92004108000697 L 159.81818785063126 39.89573988136192 L 159.9941199415378 39.87223280356973 L 160.17056323230057 39.849522197318585 L 160.34750007873754 39.827610333650185 L 160.5249127873115 39.806499403732644 L 160.7027836168995 39.78619151864135 L 160.8810947805667 39.7666887091479 L 161.05982844734544 39.74799292551699 L 161.2389667440179 39.73010603731139 L 161.4184917569037 39.71302983320503 L 161.59838553365122 39.696766020804084 L 161.77863008503263 39.68131622647624 L 161.95920738674303 39.66668199518806 L 162.14009938120273 39.65286479035046 L 162.321287979363 39.63986599367243 L 162.50275506251504 39.6276869050228 L 162.68448248410172 39.61632874230028 L 162.8664520715324 39.60579264131169 L 163.04864562799986 39.596079655658336 L 163.2310449343004 39.58719075663069 L 163.41363175065533 39.57912683311125 L 163.59638781853513 39.571888691485654 L 163.7792948624854 39.56547705556203 L 163.9623345919541 39.55989256649861 L 164.14548870312083 39.555135782739676 L 164.32873888072712 39.55120717995962 L 164.5120667999079 39.54810715101545 L 164.69545412802404 39.54583600590748 L 164.87888252649552 39.54439397174833 L 165.06233365263537 39.543781192740205 L 165.24578916148388 39.543997730160505 L 165.429230707643 39.54504356235566 L 165.61263994711098 39.54691858474333 L 165.79599853911674 39.54962260982283 L 165.97928814795387 39.553155367193924 L 166.1624904448142 39.5575165035838 L 166.34558710962077 39.56270558288246 L 166.52855983285963 39.568722086186284 L 166.71139031741097 39.57556541184998 L 166.89406028037865 39.58323487554667 L 167.07655145491862 39.59172971033638 L 167.2588455920655 39.60104906674271 L 167.44092446255752 39.61119201283778 L 167.6227698586593 39.62215753433544 L 167.8043635959828 39.633944534692674 L 167.9856875153056 39.64655183521927 L 168.16672348438692 39.65997817519568 L 168.34745339978065 39.6742222119991 L 168.5278591886459 39.689282521237715 L 168.7079228105541 39.70515759689315 L 168.8876262592931 39.72184585147107 L 169.06695156466785 39.73934561615992 L 169.24588079429716 39.757655140997834 L 169.42439605540721 39.77677259504756 L 169.60247949662067 39.796696066579635 L 169.78011330974178 39.81742356326351 L 169.9572797315373 39.838953012366794 L 170.13396104551268 39.861282260962504 L 170.3101395836837 39.8844090761444 L 170.48579772834344 39.90833114525023 L 170.66091791382377 39.93304607609303 L 170.8354826282521 39.95855139720029 L 171.0094744153024 39.98484455806117 L 171.18287587594102 40.01192292938149 L 171.35566967016638 40.03978380334669 L 171.52783851874304 40.06842439389258 L 171.69936520492962 40.097841836983974 L 171.87023257620046 40.128033190901085 L 172.04042354596078 40.15899543653367 L 172.20992109525548 40.19072547768298 L 172.37870827447082 40.223220141371336 L 172.5467682050296 40.256476178159446 L 172.71408408107874 40.290490262471344 L 172.88063917117012 40.32525899292695 L 173.0464168199335 40.36077889268218 L 173.2114004497422 40.39704640977667 L 173.37557356237065 40.43405791748893 L 173.53891974064445 40.47180971469903 L 173.70142265008187 40.51029802625871 L 173.86306604052737 40.549519003368886 L 174.02383374777668 40.589468723964536 L 174.18370969519296 40.63014319310689 L 174.34267789531475 40.67153834338292 L 174.5007224514545 40.71365003531211 L 174.65782755928828 40.75647405776034 L 174.81397750843627 40.80000612836107 L 174.96915668403363 40.844241893943504 L 175.12334956829216 40.88917693096796 L 175.27654074205188 40.934806745968174 L 175.42871488632312 40.981126776000664 L 175.57985678381823 41.02813238910104 L 175.72995132047342 41.07581888474715 L 175.87898348696012 41.12418149432918 L 176.02693838018587 41.17321538162646 L 176.17380120478464 41.22291564329114 L 176.31955727459632 41.273277309338454 L 176.46419201413545 41.324295343643776 L 176.6076909600486 41.37596464444618 L 176.75003976256068 41.42828004485865 L 176.89122418691016 41.48123631338474 L 177.0312301147722 41.53482815444173 L 177.17004354567072 41.58905020889017 L 177.30765059837827 41.643897054569806 L 177.44403751230428 41.69936320684176 L 177.57919064887102 41.75544311913705 L 177.71309649287744 41.812131183511156 L 177.84574165385072 41.869421731204895 L 177.97711286738533 41.92730903321124 L 178.10719699646938 41.985787300848216 L 178.23598103279835 42.04485068633781 L 178.36345209807592 42.10449328339068 L 178.48959744530183 42.164709127796826 L 178.61440446004644 42.22549219802199 L 178.73786066171232 42.286836415809795 L 178.85995370478213 42.348735646789585 L 178.98067138005334 42.41118370108985 L 179.10000161585901 42.47417433395719 L 179.21793247927502 42.53770124638081 L 179.33445217731327 42.60175808572242 L 179.4495490581011 42.66633844635146 L 179.5632116120463 42.73143587028569 L 179.67542847298822 42.79704384783694 L 179.78618841933428 42.86315581826215 L 179.89548037518213 42.92976517041937 L 180.00329341142725 42.996865243428886 L 180.10961674685592 43.06444932733931 L 180.21443974922315 43.132510663798584 L 180.31775193631603 43.201042446729765 L 180.419542977002 43.27003782301168 L 180.5198026922618 43.339489893164185 L 180.61852105620747 43.40939171203815 L 180.71568819708483 43.479736289509944 L 180.8112943982608 43.55051659118043 L 180.90533009919494 43.621725539078426 L 180.9977858963955 43.69335601236849 L 181.0886525443598 43.76540084806298 L 181.17792095649878 43.83785284173836 L 181.26558220604565 43.91070474825565 L 181.35162752694845 43.983949282484886 L 181.4360483147468 44.05757912003371 L 181.5188361274323 44.1315868979797 L 181.59998268629266 44.20596521560675 L 181.6794798767396 44.28070663514508 L 181.75731974912034 44.35580368251502 L 181.83349451951253 44.4312488480744 L 181.90799657050255 44.50703458736954 L 181.98081845194744 44.583153321889675 L 182.0519528817197 44.65959743982478 L 182.12139274643567 44.73635929682676 L 182.18913110216673 44.81343121677389 L 182.25516117513374 44.8908054925384 L 182.31947636238442 44.96847438675719 L 182.38207023245369 45.04643013260555 L 182.44293652600666 45.12466493457388 L 182.5020691564647 45.20317096924717 L 182.55946221061407 45.28194038608737 L 182.61510994919718 45.36096530821844 L 182.66900680748648 45.44023783321402 L 182.72114739584114 45.519750033887675 L 182.77152650024573 45.59949395908559 L 182.82013908283182 45.679461634481704 L 182.8669802823816 45.75964506337512 L 182.91204541481423 45.840036227489755 L 182.95532997365396 45.9206270877762 L 182.99682963048102 46.00140958521558 L 183.03654023536427 46.082375641625475 L 183.07445781727634 46.16351716046772 L 183.11057858449064 46.244826027658036 L 183.14489892496053 46.32629411237746 L 183.17741540668058 46.40791326788543 L 183.20812477802968 46.489675332334386 L 183.23702396809634 46.57157212958604 L 183.26411008698562 46.6535954700289 L 183.28938042610815 46.735737151397274 L 183.31283245845117 46.81798895959148 L 183.33446383883089 46.900342669499246 L 183.35427240412736 46.9827900458182 L 183.37225617350055 47.06532284387942 L 183.3884133485885 47.147932810471886 L 183.40274231368716 47.230611684667764 L 183.41524163591197 47.31335119864855 L 183.42591006534116 47.39614307853178 L 183.4347465351406 47.478979045198464 L 183.4417501616707 47.56185081512097 L 183.44692024457467 47.644750101191356 L 183.45025626684853 47.72766861355011 L 183.4517578948928 47.81059806041508 M 183.45185096416665 74.224650687 L 183.45093368731767 74.30758187539739 L 183.44818194849762 74.39050477074507 L 183.44359602287813 74.47341108082257 L 183.43717636904788 74.556292515068 L 183.42892362896694 74.63914078540698 L 183.41883862790246 74.72194760708153 L 183.4069223743461 74.80470469947849 L 183.39317605991332 74.88740378695758 L 183.3776010592241 74.97003659967896 L 183.3601989297655 75.05259487443023 L 183.340971411736 75.1350703554527 L 183.31992042787135 75.217454795267 L 183.29704808325243 75.29973995549783 L 183.27235666509463 75.3819176076977 L 183.24584864251918 75.46397953416988 L 183.21752666630624 75.54591752879013 L 183.18739356862986 75.62772339782724 L 183.15545236277467 75.7093889607625 L 183.12170624283462 75.79090605110765 L 183.08615858339363 75.8722665172216 L 183.048812939188 75.95346222312556 L 183.00967304475103 76.03448504931656 L 182.96874281403953 76.1153268935795 L 182.92602634004248 76.19597967179737 L 182.8815278943717 76.27643531875952 L 182.83525192683462 76.3566857889683 L 182.78720306498948 76.43672305744359 L 182.73738611368242 76.51653912052521 L 182.68580605456705 76.59612599667338 L 182.6324680456063 76.67547572726681 L 182.5773774205566 76.75458037739855 L 182.52053968843455 76.83343203666954 L 182.46196053296603 76.91202281997951 L 182.40164581201773 76.99034486831567 L 182.33960155701152 77.06839034953843 L 182.27583397232115 77.14615145916473 L 182.210349434652 77.22362042114837 L 182.14315449240323 77.30078948865773 L 182.0742558650131 77.37765094485036 L 182.0036604422869 77.4541971036447 L 181.93137528370812 77.53042031048867 L 181.85740761773232 77.60631294312508 L 181.7817648410645 77.68186741235391 L 181.7044545179193 77.75707616279122 L 181.62548437926455 77.83193167362462 L 181.54486232204837 77.90642645936543 L 181.46259640840927 77.98055307059713 L 181.37869486487006 78.05430409472038 L 181.29316608151518 78.12767215669422 L 181.2060186111517 78.20064991977361 L 181.117261168454 78.27323008624303 L 181.02690262909243 78.34540539814634 L 180.9349520288456 78.41716863801248 L 180.84141856269693 78.48851262957727 L 180.7463115839151 78.55943023850102 L 180.64964060311866 78.62991437308192 L 180.5514152873252 78.69995798496525 L 180.45164545898444 78.7695540698482 L 180.35034109499605 78.83869566818026 L 180.247512325712 78.90737586585924 L 180.14316943392356 78.97558779492257 L 180.03732285383296 79.04332463423424 L 179.92998317000996 79.11057961016671 L 179.82116111633354 79.17734599727847 L 179.71086757491835 79.24361711898644 L 179.59911357502665 79.30938634823364 L 179.48591029196527 79.37464710815202 L 179.37126904596818 79.4393928727199 L 179.2552013010645 79.50361716741483 L 179.1377186639319 79.56731356986084 L 179.0188328827363 79.63047571047078 L 178.89855584595668 79.6930972730832 L 178.77689958119652 79.75517199559404 L 178.65387625398085 79.81669367058277 L 178.52949816653998 79.87765614593316 L 178.40377775657893 79.93805332544848 L 178.27672759603394 79.9978791694611 L 178.14836038981522 80.05712769543649 L 178.0186889745364 80.11579297857142 L 177.88772631723091 80.17386915238646 L 177.7554855140554 80.23135040931263 L 177.62197978897998 80.28823100127214 L 177.4872224924659 80.34450524025317 L 177.35122710013047 80.40016749887876 L 177.21400721139966 80.45521221096939 L 177.07557654814798 80.50963387209974 L 176.93594895332635 80.56342704014907 L 176.79513838957794 80.61658633584535 L 176.65315893784177 80.66910644330336 L 176.5100247959447 80.72098211055611 L 176.36575027718163 80.77220815008008 L 176.22034980888424 80.82277943931403 L 176.07383793097816 80.87269092117117 L 175.9262292945291 80.9219376045449 L 175.77753866027768 80.97051456480793 L 175.62778089716346 81.01841694430472 L 175.4769709808379 81.06563995283723 L 175.32512399216702 81.11217886814397 L 175.1722551157231 81.15802903637217 L 175.0183796382664 81.20318587254323 L 174.86351294721644 81.24764486101117 L 174.7076705291133 81.29140155591419 L 174.55086796806887 81.33445158161925 L 174.39312094420862 81.37679063315966 L 174.23444523210347 81.41841447666555 L 174.07485669919242 81.45931894978726 L 173.91437130419575 81.49949996211156 L 173.75300509551923 81.53895349557071 L 173.59077420964923 81.57767560484422 L 173.42769486953918 81.61566241775346 L 173.26378338298719 81.65291013564877 L 173.09905614100532 81.68941503378942 L 172.9335296161805 81.725173461716 L 172.76722036102723 81.76018184361553 L 172.60014500633247 81.79443667867898 L 172.43232025949249 81.8279345414514 L 172.26376290284207 81.86067208217442 L 172.09448979197643 81.89264602712126 L 171.9245178540656 81.92385317892406 L 171.7538640861617 81.95429041689364 L 171.5825455534994 81.98395469733158 L 171.41057938778908 82.01284305383456 L 171.23798278550407 82.04095259759099 L 171.06477300616078 82.06828051766992 L 170.89096737059276 82.09482408130212 L 170.71658325921877 82.12058063415336 L 170.5416381103046 82.14554760058978 L 170.36614941821938 82.16972248393559 L 170.19013473168607 82.19310286672255 L 170.0136116520266 82.21568641093192 L 169.83659783140192 82.23747085822806 L 169.6591109710465 82.25845403018441 L 169.48116881949852 82.27863382850124 L 169.30278917082484 82.29800823521556 L 169.12398986284165 82.31657531290284 L 168.94478877533078 82.33433320487077 L 168.76520382825166 82.35128013534496 L 168.5852529799493 82.36741440964649 L 168.4049542253586 82.38273441436137 L 168.22432559420477 82.39723861750188 L 168.0433851492004 82.41092556865982 L 167.86215098423918 82.42379389915146 L 167.68064122258664 82.43584232215449 L 167.49887401506763 82.44706963283663 L 167.31686753825144 82.45747470847618 L 167.13463999263413 82.46705650857426 L 166.95220960081835 82.47581407495883 L 166.76959460569125 82.48374653188054 L 166.5868132686002 82.49085308610032 L 166.4038838675266 82.49713302696867 L 166.22082469525807 82.50258572649675 L 166.03765405755934 82.50721063941911 L 165.8543902713415 82.51100730324836 L 165.67105166283045 82.51397533832125 L 165.48765656573428 82.51611444783676 L 165.30422331940986 82.5174244178857 L 165.12077026702897 82.5179051174722 L 164.937315753744 82.51755649852666 L 164.75387812485334 82.5163785959107 L 164.57047572396704 82.51437152741359 L 164.38712689117236 82.51153549374052 L 164.2038499611998 82.5078707784925 L 164.0206632615896 82.50337774813799 L 163.83758511085907 82.49805685197629 L 163.65463381667075 82.49190862209255 L 163.47182767400156 82.48493367330468 L 163.28918496331346 82.47713270310172 L 163.1067239487253 82.46850649157419 L 162.92446287618648 82.45905590133607 L 162.7424199716524 82.44878187743849 L 162.5606134392618 82.43768544727529 L 162.37906145951638 82.42576772048022 L 162.19778218746285 82.41302988881607 L 162.01679375087738 82.39947322605535 L 161.83611424845276 82.38509908785305 L 161.65576174798866 82.36990891161102 L 161.4757542845849 82.35390421633423 L 161.29610985883772 82.33708660247885 L 161.11684643504006 82.31945775179227 L 160.9379819393849 82.30101942714487 L 160.75953425817275 82.28177347235372 L 160.581521236023 82.26172181199829 L 160.40396067408957 82.24086645122789 L 160.22687032828065 82.21920947556123 L 160.05026790748326 82.19675305067783 L 159.87417107179232 82.17349942220146 L 159.69859743074463 82.14945091547557 L 159.523564541558 82.12460993533082 L 159.34908990737546 82.09897896584452 L 159.17519097551508 82.07256057009226 L 159.00188513572508 82.04535738989158 L 158.82918971844506 82.01737214553785 L 158.65712199307282 81.98860763553219 L 158.4856991662375 81.95906673630161 L 158.31493838007896 81.92875240191141 L 158.14485671053347 81.8976676637698 L 157.9754711656263 81.86581563032468 L 157.80679868377075 81.83319948675282 L 157.63885613207447 81.79982249464143 L 157.47166030465266 81.7656879916619 L 157.30522792094874 81.73079939123609 L 157.13957562406236 81.69516018219495 L 156.97471997908522 81.6587739284297 L 156.81067747144442 81.62164426853538 L 156.647464505254 81.58377491544705 L 156.48509740167455 81.54516965606847 L 156.3235923972812 81.50583235089339 L 156.16296564243973 81.46576693361953 L 156.0032331996918 81.42497741075528 L 155.84441104214858 81.3834678612189 L 155.68651505189345 81.34124243593075 L 155.52956101839385 81.29830535739819 L 155.3735646369224 81.25466091929327 L 155.21854150698715 81.21031348602347 L 155.064507130772 81.1652674922951 L 154.91147691158616 81.11952744267005 L 154.75946615232405 81.07309791111514 L 154.6084900539349 81.02598354054484 L 154.45856371390275 80.97818904235695 L 154.30970212473665 80.92971919596144 L 154.16192017247147 80.88057884830258 L 154.01523263517927 80.83077291337418 L 153.8696541814916 80.78030637172822 L 153.72519936913244 80.72918426997681 L 153.5818826434627 80.67741172028754 L 153.4397183360355 80.62499389987222 L 153.2987206631631 80.57193605046922 L 153.15890372449527 80.51824347781925 L 153.02028150160945 80.46392155113485 L 152.8828678566123 80.40897570256341 L 152.7466765307539 80.35341142664399 L 152.6117211430533 80.2972342797579 L 152.4780151889368 80.240449879573 L 152.3455720388884 80.183063904482 L 152.21440493711276 80.12508209303456 L 152.0845270002107 80.06651024336355 L 151.95595121586774 80.0073542126051 L 151.82869044155512 79.94761991631299 L 151.70275740324425 79.88731332786706 L 151.578164694134 79.82644047787592 L 151.45492477339147 79.76500745357384 L 151.333049964906 79.70302039821205 L 151.21255245605693 79.64048551044444 L 151.09344429649468 79.57740904370765 L 150.97573739693598 79.51379730559582 L 150.8594435279727 79.44965665722972 L 150.7445743188948 79.38499351262078 L 150.63114125652748 79.31981433802953 L 150.51915568408245 79.25412565131914 L 150.40862880002365 79.18793402130353 L 150.29957165694734 79.12124606709055 L 150.19199516047698 79.05406845742004 L 150.08591006817255 78.98640790999698 L 149.98132698845487 78.91827119081975 L 149.8782563795448 78.84966511350348 L 149.7767085484173 78.78059653859872 L 149.67669364977087 78.7110723729054 L 149.57822168501204 78.64109956878217 L 149.48130250125524 78.57068512345113 L 149.38594579033804 78.49983607829812 L 149.29216108785207 78.42855951816863 L 149.19995777218946 78.35686257065926 L 149.10934506360493 78.28475240540502 L 149.0203320232938 78.21223623336235 L 148.93292755248598 78.13932130608802 L 148.84714039155563 78.06601491501401 L 148.76297911914745 77.99232439071831 L 148.68045215131846 77.91825710219196 L 148.59956774069673 77.84382045610208 L 148.5203339756559 77.76902189605126 L 148.44275877950642 77.69386890183317 L 148.36684990970332 77.6183689886846 L 148.29261495707024 77.54252970653394 L 148.22006134504068 77.46635863924624 L 148.1491963289153 77.38986340386471 L 148.08002699513668 77.31305164984917 L 148.01256026058059 77.235931058311 L 147.94680287186424 77.1585093412451 L 147.88276140467167 77.08079424075864 L 147.82044226309628 77.00279352829692 L 147.7598516790003 76.92451500386618 L 147.7009957113916 76.84596649525363 L 147.64388024581794 76.76715585724467 L 147.58851099377824 76.68809097083745 L 147.5348934921516 76.6087797424547 L 147.4830331026435 76.52923010315317 L 147.43293501124964 76.4494500078305 L 147.38460422773744 76.36944743442974 L 147.33804558514498 76.28923038314157 L 147.29326373929769 76.20880687560427 L 147.25026316834285 76.12818495410154 L 147.20904817230175 76.0473726807584 L 147.16962287263962 75.9663781367348 L 147.13199121185357 75.88520942141766 L 147.09615695307832 75.80387465161088 L 147.0621236797099 75.72238196072365 L 147.02989479504728 75.64073949795716 L 146.99947352195207 75.55895542748964 L 146.97086290252622 75.47703792765998 L 146.94406579780784 75.39499519014991 L 146.91908488748504 75.31283541916481 L 146.8959226696281 75.23056683061331 L 146.87458146043946 75.14819765128571 L 146.85506339402224 75.06573611803131 L 146.83737042216686 74.9831904769347 L 146.82150431415573 74.90056898249121 L 146.80746665658643 74.81787989678143 L 146.79525885321303 74.73513148864505 L 146.78488212480568 74.65233203285389 L 146.7763375090286 74.56948980928453 L 146.76962586033622 74.48661310209033 L 146.76474784988784 74.40371019887291 L 146.76170396548042 74.32078938985353 L 146.76049451149987 74.23785896704396" stroke-miterlimit="10" stroke-width="2.13614197" stroke-dasharray=""/></g><g><text fill="black" stroke="none" font-family="sans-serif" font-size="9pt" font-style="normal" font-weight="normal" text-decoration="normal" x="152.76924704166666" y="96.00073323999999" text-anchor="start" dominant-baseline="alphabetic" xml:space="preserve">ECS</text></g><g><g/><text fill="#1da1f2" stroke="none" font-family="&quot;FontAwesome&quot;" font-size="36pt" font-style="normal" font-weight="normal" text-decoration="normal" x="263.35324250423173" y="79.24667857333333" text-anchor="start" dominant-baseline="alphabetic" xml:space="preserve"></text></g><g><text fill="black" stroke="none" font-family="sans-serif" font-size="9pt" font-style="normal" font-weight="normal" text-decoration="normal" x="276.5858017083333" y="96.00073323999999" text-anchor="start" dominant-baseline="alphabetic" xml:space="preserve">S3</text></g><g><path fill="#1da1f2" stroke="black" paint-order="fill stroke markers" d=" M 485.51252848916664 63.707292869999996 A 18.659828385 18.659828385 0 1 1 485.5125191592532 63.68863304472496 M 464.33959190416664 45.04746448499999 L 471.8789165041666 38.764693984999994 M 464.33959190416664 45.04746448499999 L 471.8789165041666 51.33023498499999" stroke-miterlimit="10" stroke-width="2.13614197" stroke-dasharray=""/></g><g><text fill="black" stroke="none" font-family="sans-serif" font-size="9pt" font-style="normal" font-weight="normal" text-decoration="normal" x="436.1700829166666" y="96.00073323999999" text-anchor="start" dominant-baseline="alphabetic" xml:space="preserve">SageMaker</text></g></g><g><path fill="blue" stroke="black" paint-order="fill stroke markers" d=" M 711.1254578749999 477.85648774000003 L 723.6909988749999 477.85648774000003 L 723.6909988749999 559.53250424 L 711.1254578749999 559.53250424 L 711.1254578749999 477.85648774000003" stroke-miterlimit="10" stroke-width="1.0471284166666666" stroke-dasharray=""/><path fill="blue" stroke="black" paint-order="fill stroke markers" d=" M 885.6588836249999 477.85648774000003 L 898.2244246249999 477.85648774000003 L 898.2244246249999 559.53250424 L 885.6588836249999 559.53250424 L 885.6588836249999 477.85648774000003" stroke-miterlimit="10" stroke-width="1.0471284166666666" stroke-dasharray=""/><g><g><rect fill="white" stroke="none" x="67.79449793333333" y="124.90147753999999" width="75.80481855" height="16.3352033"/></g><text fill="black" stroke="none" font-family="sans-serif" font-size="9pt" font-style="normal" font-weight="normal" text-decoration="normal" x="69.67932908333333" y="136.21046443999998" text-anchor="start" dominant-baseline="alphabetic" xml:space="preserve">docker image</text></g><g><path fill="none" stroke="black" paint-order="fill stroke markers" d=" M 46.2876533125 141.23668084 L 163.01190427083333 141.23668084" stroke-miterlimit="10" stroke-width="1.0471284166666666" stroke-dasharray=""/><g transform="translate(165.10616110416666,141.23668084) translate(-165.10616110416666,-141.23668084)"><path fill="black" stroke="none" paint-order="stroke fill markers" d=" M 154.6348769375 136.00103875666665 L 165.10616110416666 141.23668084 L 154.6348769375 146.47232292333334 Z"/></g></g><g><g><rect fill="white" stroke="none" x="135.19886901666663" y="160.08499233999999" width="59.814584175" height="16.3352033"/></g><text fill="black" stroke="none" font-family="sans-serif" font-size="9pt" font-style="normal" font-weight="normal" text-decoration="normal" x="137.08370016666663" y="171.39397924" text-anchor="start" dominant-baseline="alphabetic" xml:space="preserve">code, data</text></g><g><path fill="none" stroke="black" paint-order="fill stroke markers" d=" M 46.2876533125 176.42019563999997 L 281.83041206249993 176.42019563999997" stroke-miterlimit="10" stroke-width="1.0471284166666666" stroke-dasharray=""/><g transform="translate(283.9246688958333,176.42019563999997) translate(-283.9246688958333,-176.42019563999997)"><path fill="black" stroke="none" paint-order="stroke fill markers" d=" M 273.4533847291666 171.18455355666663 L 283.9246688958333 176.42019563999997 L 273.4533847291666 181.65583772333332 Z"/></g></g><g><g><rect fill="white" stroke="none" x="225.0046814958333" y="195.26850714" width="63.130990425" height="16.3352033"/></g><text fill="black" stroke="none" font-family="sans-serif" font-size="9pt" font-style="normal" font-weight="normal" text-decoration="normal" x="226.8895126458333" y="206.57749404" text-anchor="start" dominant-baseline="alphabetic" xml:space="preserve">job params</text></g><g><path fill="none" stroke="black" paint-order="fill stroke markers" d=" M 46.2876533125 211.60371044 L 464.75844327083325 211.60371044" stroke-miterlimit="10" stroke-width="1.0471284166666666" stroke-dasharray=""/><g transform="translate(466.8527001041666,211.60371044) translate(-466.8527001041666,-211.60371044)"><path fill="black" stroke="none" paint-order="stroke fill markers" d=" M 456.3814159374999 206.36806835666664 L 466.8527001041666 211.60371044 L 456.3814159374999 216.83935252333333 Z"/></g></g><g><g><rect fill="white" stroke="none" x="270.3983103916666" y="230.45202194" width="91.162240425" height="16.3352033"/></g><text fill="black" stroke="none" font-family="sans-serif" font-size="9pt" font-style="normal" font-weight="normal" text-decoration="normal" x="272.2831415416666" y="241.76100884000002" text-anchor="start" dominant-baseline="alphabetic" xml:space="preserve">download image</text></g><g><path fill="none" stroke="black" paint-order="fill stroke markers" d=" M 466.8527001041666 246.78722524 L 167.2004179375 246.78722524" stroke-miterlimit="10" stroke-width="1.0471284166666666" stroke-dasharray=""/><g transform="translate(165.10616110416666,246.78722524) translate(-165.10616110416666,-246.78722524)"><path fill="black" stroke="none" paint-order="stroke fill markers" d=" M 175.57744527083332 241.55158315666665 L 165.10616110416666 246.78722524 L 175.57744527083332 252.02286732333334 Z"/><g transform="translate(466.8527001041666,246.78722524) translate(-466.8527001041666,-246.78722524)"><path fill="black" stroke="none" paint-order="stroke fill markers" d=" M 456.3814159374999 241.55158315666665 L 466.8527001041666 246.78722524 L 456.3814159374999 252.02286732333334 Z"/></g></g></g><g><g><rect fill="white" stroke="none" x="301.78510334999993" y="265.63553674" width="147.2071623" height="16.3352033"/></g><text fill="black" stroke="none" font-family="sans-serif" font-size="9pt" font-style="normal" font-weight="normal" text-decoration="normal" x="303.66993449999995" y="276.94452364" text-anchor="start" dominant-baseline="alphabetic" xml:space="preserve">download code, data, state</text></g><g><path fill="none" stroke="black" paint-order="fill stroke markers" d=" M 466.8527001041666 281.97074004 L 286.01892572916665 281.97074004" stroke-miterlimit="10" stroke-width="1.0471284166666666" stroke-dasharray=""/><g transform="translate(283.9246688958333,281.97074004) translate(-283.9246688958333,-281.97074004)"><path fill="black" stroke="none" paint-order="stroke fill markers" d=" M 294.3959530625 276.73509795666666 L 283.9246688958333 281.97074004 L 294.3959530625 287.20638212333336 Z"/><g transform="translate(466.8527001041666,281.97074004) translate(-466.8527001041666,-281.97074004)"><path fill="black" stroke="none" paint-order="stroke fill markers" d=" M 456.3814159374999 276.73509795666666 L 466.8527001041666 281.97074004 L 456.3814159374999 287.20638212333336 Z"/></g></g></g><g><g/><text fill="#1da1f2" stroke="none" font-family="&quot;FontAwesome&quot;" font-size="36pt" font-style="normal" font-weight="normal" text-decoration="normal" x="693.4082283749999" y="332.56246688833335" text-anchor="start" dominant-baseline="alphabetic" xml:space="preserve"></text></g><g><text fill="black" stroke="none" font-family="sans-serif" font-size="9pt" font-style="normal" font-weight="normal" text-decoration="normal" x="676.7177986874999" y="349.316521555" text-anchor="start" dominant-baseline="alphabetic" xml:space="preserve">EC2 instance 1</text></g><g><g><rect fill="white" stroke="none" x="484.86330887083324" y="311.15144989000004" width="173.84388105" height="16.3352033"/></g><text fill="black" stroke="none" font-family="sans-serif" font-size="9pt" font-style="normal" font-weight="normal" text-decoration="normal" x="486.74814002083326" y="322.46043679" text-anchor="start" dominant-baseline="alphabetic" xml:space="preserve">start (params, code, data, state)</text></g><g><path fill="none" stroke="black" paint-order="fill stroke markers" d=" M 466.8527001041666 327.48665319 L 674.6235418541665 327.48665319" stroke-miterlimit="10" stroke-width="1.0471284166666666" stroke-dasharray=""/><g transform="translate(676.7177986874999,327.48665319) translate(-676.7177986874999,-327.48665319)"><path fill="black" stroke="none" paint-order="stroke fill markers" d=" M 666.2465145208332 322.2510111066667 L 676.7177986874999 327.48665319 L 666.2465145208332 332.7222952733334 Z"/></g></g><g><g/><text fill="#1da1f2" stroke="none" font-family="&quot;FontAwesome&quot;" font-size="36pt" font-style="normal" font-weight="normal" text-decoration="normal" x="867.9416541249999" y="404.74598168833336" text-anchor="start" dominant-baseline="alphabetic" xml:space="preserve"></text></g><g><text fill="black" stroke="none" font-family="sans-serif" font-size="9pt" font-style="normal" font-weight="normal" text-decoration="normal" x="851.2512244374999" y="421.500036355" text-anchor="start" dominant-baseline="alphabetic" xml:space="preserve">EC2 instance 2</text></g><g><g><rect fill="white" stroke="none" x="572.1300217458332" y="383.33496469000005" width="173.84388105" height="16.3352033"/></g><text fill="black" stroke="none" font-family="sans-serif" font-size="9pt" font-style="normal" font-weight="normal" text-decoration="normal" x="574.0148528958332" y="394.64395159000003" text-anchor="start" dominant-baseline="alphabetic" xml:space="preserve">start (params, code, data, state)</text></g><g><path fill="none" stroke="black" paint-order="fill stroke markers" d=" M 466.8527001041666 399.67016799000004 L 849.1569676041665 399.67016799000004" stroke-miterlimit="10" stroke-width="1.0471284166666666" stroke-dasharray=""/><g transform="translate(851.2512244374999,399.67016799000004) translate(-851.2512244374999,-399.67016799000004)"><path fill="black" stroke="none" paint-order="stroke fill markers" d=" M 840.7799402708332 394.4345259066667 L 851.2512244374999 399.67016799000004 L 840.7799402708332 404.9058100733334 Z"/></g></g><g><g><rect fill="white" stroke="none" x="732.2774518916666" y="445.18608114000006" width="96.482552925" height="16.3352033"/></g><text fill="black" stroke="none" font-family="sans-serif" font-size="9pt" font-style="normal" font-weight="normal" text-decoration="normal" x="734.1622830416666" y="456.49506804000004" text-anchor="start" dominant-baseline="alphabetic" xml:space="preserve">run docker image</text></g><g><path fill="none" stroke="black" paint-order="fill stroke markers" d=" M 717.4082283749999 461.52128444000004 L 767.6703923749999 461.52128444000004 L 767.6703923749999 477.85648774000003 L 719.5024852083333 477.85648774000003" stroke-miterlimit="10" stroke-width="1.0471284166666666" stroke-dasharray=""/><g transform="translate(717.4082283749999,477.85648774000003) translate(-717.4082283749999,-477.85648774000003)"><path fill="black" stroke="none" paint-order="stroke fill markers" d=" M 727.8795125416666 472.6208456566667 L 717.4082283749999 477.85648774000003 L 727.8795125416666 483.0921298233334 Z"/></g></g><g><g><rect fill="white" stroke="none" x="913.0936481416666" y="445.18608114000006" width="96.482552925" height="16.3352033"/></g><text fill="black" stroke="none" font-family="sans-serif" font-size="9pt" font-style="normal" font-weight="normal" text-decoration="normal" x="914.9784792916665" y="456.49506804000004" text-anchor="start" dominant-baseline="alphabetic" xml:space="preserve">run docker image</text></g><g><path fill="none" stroke="black" paint-order="fill stroke markers" d=" M 891.9416541249999 461.52128444000004 L 948.4865886249999 461.52128444000004 L 948.4865886249999 477.85648774000003 L 900.3186814583332 477.85648774000003" stroke-miterlimit="10" stroke-width="1.0471284166666666" stroke-dasharray=""/><g transform="translate(898.2244246249999,477.85648774000003) translate(-898.2244246249999,-477.85648774000003)"><path fill="black" stroke="none" paint-order="stroke fill markers" d=" M 908.6957087916666 472.6208456566667 L 898.2244246249999 477.85648774000003 L 908.6957087916666 483.0921298233334 Z"/></g></g><path fill="white" stroke="black" paint-order="fill stroke markers" d=" M 706.0992414749999 496.70479923999994 L 891.9416541249998 496.70479923999994 L 903.2506410249998 508.0137861399999 L 903.2506410249998 550.73662554 L 706.0992414749999 550.73662554 L 706.0992414749999 496.70479923999994 M 891.9416541249998 496.70479923999994 L 891.9416541249998 508.0137861399999 L 903.2506410249998 508.0137861399999" stroke-miterlimit="10" stroke-width="1.0471284166666666" stroke-dasharray=""/><g><text fill="black" stroke="none" font-family="sans-serif" font-size="9pt" font-style="normal" font-weight="normal" text-decoration="normal" x="729.9737693749998" y="514.2965566400001" text-anchor="start" dominant-baseline="alphabetic" xml:space="preserve">The (</text><text fill="black" stroke="none" font-family="sans-serif" font-size="9pt" font-style="normal" font-weight="bold" text-decoration="normal" x="757.9815818749998" y="514.2965566400001" text-anchor="start" dominant-baseline="alphabetic" xml:space="preserve">worker</text><text fill="black" stroke="none" font-family="sans-serif" font-size="9pt" font-style="normal" font-weight="normal" text-decoration="normal" x="797.3331443749998" y="514.2965566400001" text-anchor="start" dominant-baseline="alphabetic" xml:space="preserve">) job is running.</text><text fill="black" stroke="none" font-family="sans-serif" font-size="9pt" font-style="normal" font-weight="normal" text-decoration="normal" x="729.9737693749998" y="526.8620976400001" text-anchor="start" dominant-baseline="alphabetic" xml:space="preserve">Code, data and state get</text><text fill="black" stroke="none" font-family="sans-serif" font-size="9pt" font-style="normal" font-weight="normal" text-decoration="normal" x="729.9737693749998" y="539.4276386400002" text-anchor="start" dominant-baseline="alphabetic" xml:space="preserve"> mounted into it.</text></g><g><g><rect fill="white" stroke="none" x="537.5464143395833" y="569.58493704" width="109.1680998" height="16.3352033"/></g><text fill="black" stroke="none" font-family="sans-serif" font-size="9pt" font-style="normal" font-weight="normal" text-decoration="normal" x="539.4312454895833" y="580.89392394" text-anchor="start" dominant-baseline="alphabetic" xml:space="preserve">output, model, state</text></g><g><path fill="none" stroke="black" paint-order="fill stroke markers" d=" M 717.4082283749999 585.92014034 L 468.9469569375 585.92014034" stroke-miterlimit="10" stroke-width="1.0471284166666666" stroke-dasharray=""/><g transform="translate(466.8527001041666,585.92014034) translate(-466.8527001041666,-585.92014034)"><path fill="black" stroke="none" paint-order="stroke fill markers" d=" M 477.3239842708333 580.6844982566666 L 466.8527001041666 585.92014034 L 477.3239842708333 591.1557824233333 Z"/></g></g><g><g><rect fill="white" stroke="none" x="624.8131272145832" y="604.76845184" width="109.1680998" height="16.3352033"/></g><text fill="black" stroke="none" font-family="sans-serif" font-size="9pt" font-style="normal" font-weight="normal" text-decoration="normal" x="626.6979583645832" y="616.07743874" text-anchor="start" dominant-baseline="alphabetic" xml:space="preserve">output, model, state</text></g><g><path fill="none" stroke="black" paint-order="fill stroke markers" d=" M 891.9416541249999 621.10365514 L 468.9469569375 621.10365514" stroke-miterlimit="10" stroke-width="1.0471284166666666" stroke-dasharray=""/><g transform="translate(466.8527001041666,621.10365514) translate(-466.8527001041666,-621.10365514)"><path fill="black" stroke="none" paint-order="stroke fill markers" d=" M 477.3239842708333 615.8680130566667 L 466.8527001041666 621.10365514 L 477.3239842708333 626.3392972233333 Z"/></g></g><g><g><rect fill="white" stroke="none" x="481.7219236208333" y="639.95196664" width="146.51575605" height="16.3352033"/></g><text fill="black" stroke="none" font-family="sans-serif" font-size="9pt" font-style="normal" font-weight="normal" text-decoration="normal" x="483.60675477083333" y="651.2609535400001" text-anchor="start" dominant-baseline="alphabetic" xml:space="preserve">merge output, model, state</text></g><g><path fill="none" stroke="black" paint-order="fill stroke markers" d=" M 466.8527001041666 656.28716994 L 517.1148641041666 656.28716994 L 517.1148641041666 672.62237324 L 468.9469569375 672.62237324" stroke-miterlimit="10" stroke-width="1.0471284166666666" stroke-dasharray=""/><g transform="translate(466.8527001041666,672.62237324) translate(-466.8527001041666,-672.62237324)"><path fill="black" stroke="none" paint-order="stroke fill markers" d=" M 477.3239842708333 667.3867311566667 L 466.8527001041666 672.62237324 L 477.3239842708333 677.8580153233333 Z"/></g></g><g><g><rect fill="white" stroke="none" x="298.79389241249993" y="691.47068474" width="153.189584175" height="16.3352033"/></g><text fill="black" stroke="none" font-family="sans-serif" font-size="9pt" font-style="normal" font-weight="normal" text-decoration="normal" x="300.67872356249995" y="702.7796716400001" text-anchor="start" dominant-baseline="alphabetic" xml:space="preserve">merged output, model, state</text></g><g><path fill="none" stroke="black" paint-order="fill stroke markers" d=" M 466.8527001041666 707.80588804 L 286.01892572916665 707.80588804" stroke-miterlimit="10" stroke-width="1.0471284166666666" stroke-dasharray=""/><g transform="translate(283.9246688958333,707.80588804) translate(-283.9246688958333,-707.80588804)"><path fill="black" stroke="none" paint-order="stroke fill markers" d=" M 294.3959530625 702.5702459566667 L 283.9246688958333 707.80588804 L 294.3959530625 713.0415301233334 Z"/></g></g><g><g><rect fill="white" stroke="none" x="61.156876829166634" y="726.65419954" width="207.89856855" height="16.3352033"/></g><text fill="black" stroke="none" font-family="sans-serif" font-size="9pt" font-style="normal" font-weight="normal" text-decoration="normal" x="63.04170797916663" y="737.9631864400001" text-anchor="start" dominant-baseline="alphabetic" xml:space="preserve">download merged output, model, state</text></g><g><path fill="none" stroke="black" paint-order="fill stroke markers" d=" M 46.2876533125 742.98940284 L 281.83041206249993 742.98940284" stroke-miterlimit="10" stroke-width="1.0471284166666666" stroke-dasharray=""/><g transform="translate(283.9246688958333,742.98940284) translate(-283.9246688958333,-742.98940284)"><path fill="black" stroke="none" paint-order="stroke fill markers" d=" M 273.4533847291666 737.7537607566667 L 283.9246688958333 742.98940284 L 273.4533847291666 748.2250449233334 Z"/><g transform="translate(46.2876533125,742.98940284) translate(-46.2876533125,-742.98940284)"><path fill="black" stroke="none" paint-order="stroke fill markers" d=" M 56.75893747916666 737.7537607566667 L 46.2876533125 742.98940284 L 56.75893747916666 748.2250449233334 Z"/></g></g></g></g><g/></g></svg>